<svg width="67" height="66" viewBox="0 0 67 66" fill="none" xmlns="http://www.w3.org/2000/svg">
<rect width="67" height="66" rx="33" fill="#F8F8F8"/>
<path d="M29.15 19H21.9C20.305 19 19 20.26 19 21.8V28.8C19 30.34 20.305 31.6 21.9 31.6H29.15C30.745 31.6 32.05 30.34 32.05 28.8V21.8C32.05 20.26 30.745 19 29.15 19ZM29.15 26H21.9V24.6H29.15V26ZM45.1 34.4H37.85C36.255 34.4 34.95 35.66 34.95 37.2V44.2C34.95 45.74 36.255 47 37.85 47H45.1C46.695 47 48 45.74 48 44.2V37.2C48 35.66 46.695 34.4 45.1 34.4ZM45.1 42.8H37.85V41.4H45.1V42.8ZM45.1 40H37.85V38.6H45.1V40ZM45.1 19H37.85C36.255 19 34.95 20.26 34.95 21.8V28.8C34.95 30.34 36.255 31.6 37.85 31.6H45.1C46.695 31.6 48 30.34 48 28.8V21.8C48 20.26 46.695 19 45.1 19ZM45.1 26H42.2V28.8H40.75V26H37.85V24.6H40.75V21.8H42.2V24.6H45.1V26ZM29.15 34.4H21.9C20.305 34.4 19 35.66 19 37.2V44.2C19 45.74 20.305 47 21.9 47H29.15C30.745 47 32.05 45.74 32.05 44.2V37.2C32.05 35.66 30.745 34.4 29.15 34.4ZM28.57 42.66L27.555 43.64L25.525 41.68L23.495 43.64L22.48 42.66L24.51 40.7L22.48 38.74L23.495 37.76L25.525 39.72L27.555 37.76L28.57 38.74L26.54 40.7L28.57 42.66Z" fill="#FD2016"/>
</svg>
